<svg xmlns="http://www.w3.org/2000/svg" xmlns:xlink="http://www.w3.org/1999/xlink" id="Ebene_1" width="51.937" height="65.131" x="0" y="0" enable-background="new 0 0 51.937 65.131" version="1.1" viewBox="0 0 51.937 65.131" xml:space="preserve"><g><defs><rect id="SVGID_1_" width="51.312" height="64.14" x=".312" y=".496"/></defs><clipPath id="SVGID_2_"><use overflow="visible" xlink:href="#SVGID_1_"/></clipPath><path d="M36.964,48.841c3.054-4.538,3.229-11.17,3.229-16.231c0-5.672-0.175-13.352-4.451-17.802 c-2.443-2.618-6.196-4.102-9.773-4.102c-3.578,0-7.331,1.483-9.774,4.102c-4.276,4.45-4.451,12.13-4.451,17.802 c0,5.673,0.175,13.265,4.451,17.715c2.443,2.617,6.196,4.102,9.774,4.102c1.309,0,2.705-0.175,4.014-0.611l6.806,8.64 c-3.403,1.483-7.068,2.182-10.82,2.182c-6.633,0-13.09-2.269-17.802-6.98c-6.72-6.721-7.854-14.924-7.854-25.046 S1.447,14.197,8.167,7.477c4.712-4.712,11.169-6.98,17.802-6.98c6.632,0,13.089,2.269,17.802,6.98 c6.719,6.721,7.853,15.011,7.853,25.133s-1.134,18.238-7.766,24.957L36.964,48.841c3.054-4.538,3.229-11.17,3.229-16.231 c0-5.672-0.175-13.352-4.451-17.802c-2.443-2.618-6.196-4.102-9.773-4.102c-3.578,0-7.331,1.483-9.774,4.102 c-4.276,4.45-4.451,12.13-4.451,17.802c0,5.673,0.175,13.265,4.451,17.715c2.443,2.617,6.196,4.102,9.774,4.102 c1.309,0,2.705-0.175,4.014-0.611c-1.309,0.437-2.705,0.611-4.014,0.611c-3.578,0-7.331-1.484-9.774-4.102 c-4.276-4.45-4.451-12.042-4.451-17.715c0-5.672,0.175-13.352,4.451-17.802c2.443-2.618,6.196-4.102,9.774-4.102 c3.577,0,7.33,1.483,9.773,4.102c4.276,4.45,4.451,12.13,4.451,17.802C40.193,37.671,40.018,44.303,36.964,48.841" clip-path="url(#SVGID_2_)"/></g></svg>